<svg id="Layer_1" data-name="Layer 1" xmlns="http://www.w3.org/2000/svg" viewBox="0 0 284.55 258.57"><defs><style>.cls-1,.cls-10{opacity:0.5;}.cls-10,.cls-13,.cls-18,.cls-2,.cls-6,.cls-7,.cls-8,.cls-9{fill:none;}.cls-2{stroke:#ea9dea;stroke-width:1.97px;}.cls-10,.cls-13,.cls-15,.cls-18,.cls-2,.cls-6,.cls-7,.cls-8,.cls-9{stroke-linecap:round;stroke-linejoin:round;}.cls-3{fill:#ea9dea;}.cls-15,.cls-4{fill:#e5eefd;}.cls-5{opacity:0.7;}.cls-6,.cls-8{stroke:#c9d7ed;}.cls-6{stroke-width:3.07px;}.cls-10,.cls-7,.cls-9{stroke:#9fc3fd;}.cls-7{stroke-width:1.96px;}.cls-8{stroke-width:2.33px;}.cls-10,.cls-9{stroke-width:1.48px;}.cls-11{fill:#93b9f4;}.cls-12{fill:#717791;}.cls-13,.cls-15{stroke:#717791;}.cls-13{stroke-width:3px;}.cls-14{fill:#3f72ba;opacity:0.2;}.cls-15{stroke-width:3.33px;}.cls-16{fill:#fff;}.cls-17{fill:#50e3c2;}.cls-18{stroke:#2f57e4;stroke-width:4px;}</style></defs><title>rules</title><g id="_27._SECURITY" data-name="27. SECURITY"><g class="cls-1"><rect class="cls-2" x="11.31" y="74.86" width="12.19" height="20.21" rx="6.09" transform="translate(26.04 -1.33) rotate(17.29)"/><line class="cls-2" x1="12.79" y1="79.27" x2="24.43" y2="82.89"/><circle class="cls-3" cx="17.42" cy="77.87" r="0.82"/><circle class="cls-3" cx="21.41" cy="79.11" r="0.82"/><polyline class="cls-2" points="11.36 83.26 8.97 81.1 5.48 81.43"/><polyline class="cls-2" points="12.46 79.71 10.08 77.55 6.59 77.88"/><polyline class="cls-2" points="10.15 87.13 7.77 84.97 4.28 85.3"/><polyline class="cls-2" points="29.1 88.78 26.72 86.62 23.23 86.95"/><polyline class="cls-2" points="30.21 85.23 27.82 83.07 24.33 83.4"/><polyline class="cls-2" points="27.9 92.65 25.51 90.49 22.02 90.82"/></g><g class="cls-1"><rect class="cls-2" x="265.26" y="98.72" width="12.19" height="20.21" rx="6.09" transform="translate(10.47 240.78) rotate(-48.68)"/><line class="cls-2" x1="264.28" y1="110.72" x2="272.33" y2="101.57"/><circle class="cls-3" cx="264.89" cy="105.92" r="0.82"/><circle class="cls-3" cx="267.65" cy="102.79" r="0.82"/><polyline class="cls-2" points="267.34 113.66 264.4 114.95 263.28 118.28"/><polyline class="cls-2" points="264.55 111.2 261.61 112.5 260.49 115.83"/><polyline class="cls-2" points="270.39 116.33 267.44 117.63 266.32 120.95"/><polyline class="cls-2" points="279.61 99.7 276.67 101 275.55 104.32"/><polyline class="cls-2" points="276.82 97.24 273.88 98.54 272.76 101.87"/><polyline class="cls-2" points="282.66 102.38 279.71 103.67 278.59 107"/></g><g class="cls-1"><rect class="cls-2" x="267.79" y="22.14" width="12.19" height="20.21" rx="6.09" transform="translate(366.5 292) rotate(-116.34)"/><line class="cls-2" x1="272.94" y1="39.51" x2="267.54" y2="28.59"/><circle class="cls-3" cx="268.74" cy="37.12" r="0.82"/><circle class="cls-3" cx="266.88" cy="33.38" r="0.82"/><polyline class="cls-2" points="276.82 37.8 276.9 41.01 279.55 43.31"/><polyline class="cls-2" points="273.49 39.44 273.57 42.66 276.22 44.96"/><polyline class="cls-2" points="280.45 36 280.54 39.22 283.19 41.51"/><polyline class="cls-2" points="268.57 21.14 268.66 24.36 271.31 26.66"/><polyline class="cls-2" points="265.24 22.79 265.33 26.01 267.98 28.31"/><polyline class="cls-2" points="272.21 19.34 272.29 22.56 274.94 24.86"/></g><g class="cls-1"><rect class="cls-2" x="106.65" y="11.45" width="12.19" height="20.21" rx="6.09" transform="translate(218.35 66.51) rotate(-167.76)"/><line class="cls-2" x1="117.84" y1="26.81" x2="105.93" y2="24.23"/><circle class="cls-3" cx="113.35" cy="28.61" r="0.82"/><circle class="cls-3" cx="109.27" cy="27.73" r="0.82"/><polyline class="cls-2" points="118.91 22.71 121.48 24.66 124.93 24.02"/><polyline class="cls-2" points="118.13 26.34 120.69 28.29 124.14 27.65"/><polyline class="cls-2" points="119.77 18.75 122.34 20.69 125.79 20.05"/><polyline class="cls-2" points="100.75 18.77 103.32 20.72 106.77 20.08"/><polyline class="cls-2" points="99.97 22.41 102.53 24.35 105.98 23.71"/><polyline class="cls-2" points="101.61 14.81 104.18 16.75 107.63 16.11"/></g><rect class="cls-4" x="139.98" y="166.47" width="148.42" height="27.34" rx="13.67" transform="translate(493.01 156.06) rotate(135)"/><rect class="cls-4" x="11.12" y="133.56" width="46.06" height="27.34" rx="13.67" transform="translate(162.41 227.18) rotate(135)"/><path class="cls-4" d="M167.79,169.3l39.13-39.12a13.66,13.66,0,1,0,19.33,19.32l-39.13,39.13a13.67,13.67,0,0,0-19.33-19.33Z"/><path class="cls-4" d="M151.07,109.7,187.73,73a13.66,13.66,0,1,0,19.33,19.32L170.4,129a13.67,13.67,0,0,0-19.33-19.33Z"/><rect class="cls-4" x="111.93" y="103.07" width="178.6" height="27.34" rx="13.67" transform="translate(426.07 56.99) rotate(135)"/><rect class="cls-4" x="-1.17" y="112.74" width="233.23" height="27.34" rx="13.67" transform="translate(286.48 134.16) rotate(135)"/><rect class="cls-4" x="43.53" y="62.68" width="103.74" height="27.34" rx="13.67" transform="translate(216.85 62.86) rotate(135)"/><rect class="cls-4" x="144.03" y="0.16" width="27.79" height="27.34" rx="13.67" transform="translate(279.37 -88.06) rotate(135)"/><rect class="cls-4" x="102.58" y="186.9" width="27.79" height="27.34" rx="13.67" transform="translate(340.67 260.03) rotate(135)"/><g class="cls-5"><line class="cls-6" x1="19.94" y1="48.87" x2="19.94" y2="57.91"/><line class="cls-6" x1="24.46" y1="53.39" x2="15.43" y2="53.39"/></g><circle class="cls-7" cx="79.53" cy="27.1" r="2.23"/><g class="cls-5"><line class="cls-8" x1="207.85" y1="20.95" x2="207.85" y2="30.41"/><line class="cls-8" x1="212.58" y1="25.68" x2="203.12" y2="25.68"/></g><g class="cls-5"><line class="cls-8" x1="233.02" y1="196.88" x2="233.02" y2="206.35"/><line class="cls-8" x1="237.76" y1="201.62" x2="228.29" y2="201.62"/></g><circle class="cls-8" cx="277.59" cy="81.1" r="1.91"/><circle class="cls-8" cx="44.72" cy="171.08" r="1.91"/><circle class="cls-7" cx="238.69" cy="76.28" r="1.91"/><circle class="cls-7" cx="180.53" cy="4.99" r="1.91"/><circle class="cls-7" cx="265.53" cy="181.07" r="1.91"/><rect class="cls-9" x="25.23" y="108.23" width="5.15" height="5.15" transform="translate(-65.94 45.51) rotate(-41.05)"/><rect class="cls-9" x="239.39" y="9.28" width="3.54" height="3.54" transform="translate(294.05 246.59) rotate(-105.28)"/><rect class="cls-10" x="279.6" y="183.98" width="3.54" height="3.54" transform="translate(176.32 506.12) rotate(-105.28)"/><path class="cls-11" d="M202.93,153.21c0,.63-.07,1.27-.1,1.91"/><line class="cls-4" x1="273" y1="243.98" x2="278.61" y2="243.98"/><path class="cls-12" d="M273,243.27a7.34,7.34,0,0,1,2.8-.39,14.09,14.09,0,0,1,2.81.28.85.85,0,0,1,.65,1,.84.84,0,0,1-.65.64,14.09,14.09,0,0,1-2.81.28,7.34,7.34,0,0,1-2.8-.39.75.75,0,0,1-.44-1A.76.76,0,0,1,273,243.27Z"/><line class="cls-4" x1="193.55" y1="243.98" x2="268.87" y2="243.98"/><path class="cls-12" d="M193.55,243.31c3.14-.31,6.27-.35,9.41-.36l9.42,0,18.83-.1h28.25c3.14,0,6.28,0,9.41.3a.88.88,0,0,1,0,1.76c-3.13.27-6.27.29-9.41.3H231.21l-18.83-.11L203,245c-3.14,0-6.27,0-9.41-.35a.68.68,0,0,1,0-1.35Z"/><line class="cls-4" x1="16.85" y1="243.98" x2="180.2" y2="243.98"/><path class="cls-12" d="M16.85,243.31c6.81-.31,13.62-.36,20.42-.35l20.42,0,40.84-.05,40.84,0,20.41,0c6.81,0,13.62,0,20.42.3a.88.88,0,0,1,0,1.76c-6.8.27-13.61.29-20.42.3l-20.41,0-40.84,0L57.69,245l-20.42,0c-6.8,0-13.61,0-20.42-.35a.68.68,0,0,1-.64-.71A.67.67,0,0,1,16.85,243.31Z"/><line class="cls-4" x1="10.65" y1="243.98" x2="11.47" y2="243.98"/><path class="cls-12" d="M10.65,243a1.87,1.87,0,0,1,.41,0,1.6,1.6,0,0,1,.21.05.52.52,0,0,1,.2.09,1,1,0,0,1,.29,1.44,1.1,1.1,0,0,1-.29.28.52.52,0,0,1-.2.09.8.8,0,0,1-.21,0,1.87,1.87,0,0,1-.41,0,1,1,0,0,1-.77-1.22A1,1,0,0,1,10.65,243Z"/><line class="cls-4" x1="0.56" y1="243.98" x2="4.65" y2="243.98"/><path class="cls-12" d="M.56,243.25A10.2,10.2,0,0,1,2.61,243a5.9,5.9,0,0,1,2,.19.86.86,0,0,1,.56,1.06.89.89,0,0,1-.56.56,5.67,5.67,0,0,1-2,.19,9.53,9.53,0,0,1-2-.27.76.76,0,0,1-.54-.92A.79.79,0,0,1,.56,243.25Z"/><line class="cls-4" x1="108.38" y1="257.39" x2="124.36" y2="257.39"/><path class="cls-12" d="M108.38,256.71a4.38,4.38,0,0,1,2-.35l2-.06,4-.1h6a5.32,5.32,0,0,1,2,.3.94.94,0,0,1,.54,1.22.93.93,0,0,1-.54.54,5.32,5.32,0,0,1-2,.3h-6l-4-.1-2-.05a4.39,4.39,0,0,1-2-.36.74.74,0,0,1-.35-1A.7.7,0,0,1,108.38,256.71Z"/><line class="cls-4" x1="81.48" y1="257.39" x2="101.63" y2="257.39"/><path class="cls-12" d="M81.48,256.66c3.36-.18,6.72-.24,10.08-.27s6.72,0,10.07.19a.81.81,0,0,1,.76.86.79.79,0,0,1-.76.75c-3.35.22-6.71.23-10.07.2s-6.72-.1-10.08-.27a.74.74,0,0,1-.69-.77A.73.73,0,0,1,81.48,256.66Z"/><path class="cls-13" d="M198.5,226.81"/><path class="cls-14" d="M222.47,74.76c-18.22.76-50.15-9.94-72.61-26.35h0C127.4,64.82,95.47,75.52,77.25,74.76c.57,88.12,6.58,114.62,72.61,152.93h0C215.89,189.38,221.9,162.88,222.47,74.76Z"/><path class="cls-15" d="M217.53,78c-17,.67-46.74-8.76-67.67-23.22h0C128.93,69.26,99.17,78.69,82.19,78c.53,77.67,6.13,101,67.67,134.8h0C211.4,179.05,217,155.69,217.53,78Z"/><path class="cls-16" d="M149.86,200.75c-27.1-15.33-40.11-31-47.25-45.61-7.26-14.84-9.26-34.65-9.77-66.7,17.38-1,39.22-11,57-21.19,17.8,10.23,39.64,20.24,57,21.19-.51,32.05-2.51,51.86-9.77,66.7C190,169.72,177,185.42,149.86,200.75Z"/><path class="cls-12" d="M143.37,197.61A98.26,98.26,0,0,1,107,166.29,79.15,79.15,0,0,1,99.17,152c-4.14-10.16-5.74-21-6.74-31.58s-1.19-21.33-1.25-32h0a1.68,1.68,0,0,1,1.49-1.68h.08c2.79-.3,5.59-.57,8.41-1s5.64-.9,8.47-1.44a.89.89,0,0,1,1.06.71.92.92,0,0,1-.55,1,61.86,61.86,0,0,1-8.4,2.71,37.19,37.19,0,0,1-8.81,1.28l1.58-1.69h0c.17,5.3.32,10.59.57,15.87s.62,10.56,1.09,15.8c1,10.46,2.63,20.92,6.5,30.5A75,75,0,0,0,110,164.26a90.52,90.52,0,0,0,9.87,12.08,125.2,125.2,0,0,0,11.68,10.48c4.07,3.31,8.28,6.47,12.45,9.78h0a.6.6,0,0,1,.1.84A.59.59,0,0,1,143.37,197.61Z"/><path class="cls-12" d="M131.13,76.08c2.94-1.84,5.93-3.54,8.93-5.21s6-3.41,9-5.07h0l0,0a1.69,1.69,0,0,1,1.62,0,225.35,225.35,0,0,0,27.25,13.48,129.19,129.19,0,0,0,14.31,4.91A73.06,73.06,0,0,0,207,86.78H207a1.67,1.67,0,0,1,1.52,1.68c-.17,11.24-.36,22.5-1.53,33.76A146.14,146.14,0,0,1,204.4,139a74,74,0,0,1-5.51,16.27,83.84,83.84,0,0,1-9,14.56,95.08,95.08,0,0,1-11.64,12.5,128,128,0,0,1-28.06,18.91.61.61,0,0,1-.61-1.05h0c4.71-3,9.36-6.12,13.84-9.42a137.68,137.68,0,0,0,12.8-10.63,96.84,96.84,0,0,0,11.11-12.25,80.75,80.75,0,0,0,8.52-14.07c4.62-9.91,6.52-21,7.65-32,.54-5.53.9-11.1,1.19-16.68s.42-11.17.54-16.77l1.58,1.69h0a76.6,76.6,0,0,1-15.42-2.7,133.65,133.65,0,0,1-14.68-5A229.23,229.23,0,0,1,149,68.69h1.66c-3,1.78-6.06,3.41-9.19,4.93a75.31,75.31,0,0,1-9.64,4,.87.87,0,0,1-1.09-.55A.89.89,0,0,1,131.13,76.08Z"/><path class="cls-12" d="M119.46,81a.92.92,0,0,1,.53-.61l.63-.31c.21-.11.44-.18.66-.27a5,5,0,0,1,.69-.2h0a1.35,1.35,0,0,1,1,2.48,4,4,0,0,1-.65.33c-.22.08-.44.19-.67.26l-.69.21a1,1,0,0,1-.81-.08,1.49,1.49,0,0,1-.7-1.79Z"/><path class="cls-16" d="M143.28,154.61a5.47,5.47,0,0,1-3.88-1.6l-19-19a5.48,5.48,0,0,1,7.76-7.75l15.11,15.11,32.53-32.53a5.48,5.48,0,0,1,7.76,7.75L147.15,153A5.45,5.45,0,0,1,143.28,154.61Z"/><path class="cls-17" d="M177,107.92a5.49,5.49,0,0,1,6.53,8.68L147.15,153a5.49,5.49,0,0,1-7.75,0l-19-19a5.48,5.48,0,0,1,7.76-7.75l15.11,15.11,23.24-23.24"/><path class="cls-12" d="M176.71,107.32a5.81,5.81,0,0,1,4.93-.88,6.36,6.36,0,0,1,4,3.3A6.69,6.69,0,0,1,186,115a6.45,6.45,0,0,1-1.37,2.29c-.57.62-1.05,1.07-1.58,1.62l-12.41,12.53L158.2,143.93,152,150.2l-3.11,3.13-.79.8a6.58,6.58,0,0,1-1.1.87,7,7,0,0,1-7.89-.29,20,20,0,0,1-1.77-1.65l-1.56-1.55-6.27-6.21-6.27-6.21-3.14-3.1-.78-.78a7.37,7.37,0,0,1-.9-1.08,7.11,7.11,0,0,1,10.2-9.65,21.44,21.44,0,0,1,1.76,1.66l1.57,1.56,12.48,12.47,0,0H142.1l23.81-22.68a.86.86,0,0,1,1.22,1.22l-22.67,23.81a1.63,1.63,0,0,1-2.3.05h0l0,0,0,0L129.6,130,128,128.48c-.51-.5-1.1-1.13-1.43-1.38a3.83,3.83,0,0,0-5.46.85,3.89,3.89,0,0,0-.63,2.93,3.84,3.84,0,0,0,.58,1.42,4.64,4.64,0,0,0,.51.62l.77.78,3.11,3.13,6.21,6.27,6.21,6.27,1.55,1.57c.52.5,1.07,1.12,1.43,1.39a4,4,0,0,0,3,.76,3.9,3.9,0,0,0,1.5-.56,3.81,3.81,0,0,0,.64-.5l.76-.75,3.14-3.1,6.26-6.21,12.54-12.42,12.54-12.42c.5-.51,1.09-1.06,1.52-1.52a4.22,4.22,0,0,0,.89-1.46,4.32,4.32,0,0,0-.19-3.36,5,5,0,0,0-6.16-2.27h0a.69.69,0,0,1-.88-.42A.7.7,0,0,1,176.71,107.32Z"/><path class="cls-18" d="M229.15,156.16c-19.81,4.36-48,7.08-79.29,7.08-60,0-108.6-10-108.6-22.35,0-5.86,11-11.19,28.86-15.17"/><path class="cls-18" d="M227.28,125.22c19.28,4,31.18,9.56,31.18,15.67,0,5-7.94,9.59-21.35,13.31"/><path class="cls-18" d="M71,208c1.7-7.13,7.41-17.5,16.21-29.73"/><path class="cls-18" d="M71.71,216.27a5.21,5.21,0,0,1-.85-1.6"/><path class="cls-18" d="M209.92,67.08c8.69-3.92,15-4.79,17.78-1.92,8.6,8.84-19.27,49.92-62.25,91.75-36.36,35.38-71.89,60-87.19,61.34"/><path class="cls-18" d="M95.89,128.76c8,9.1,17,18.6,26.82,28.15,43,41.83,84.81,68.56,93.42,59.71,4.15-4.26-.17-16-10.58-31.72"/><path class="cls-18" d="M89.8,121.66l.81,1"/><path class="cls-18" d="M79.9,67.86c-9.55-4.57-16.47-5.75-19.44-2.7-5.57,5.72,4.12,24.92,23.29,49.09"/><g class="cls-1"><rect class="cls-2" x="22.32" y="180.89" width="11.46" height="18.99" rx="5.73" transform="translate(-133.46 85.76) rotate(-48.68)"/><line class="cls-2" x1="21.4" y1="192.17" x2="28.96" y2="183.57"/><circle class="cls-3" cx="21.97" cy="187.66" r="0.77"/><circle class="cls-3" cx="24.56" cy="184.72" r="0.77"/><polyline class="cls-2" points="24.27 194.93 21.51 196.15 20.45 199.27"/><polyline class="cls-2" points="21.65 192.62 18.88 193.84 17.83 196.97"/><polyline class="cls-2" points="27.14 197.44 24.37 198.66 23.32 201.79"/><polyline class="cls-2" points="35.81 181.81 33.04 183.03 31.99 186.16"/><polyline class="cls-2" points="33.18 179.5 30.41 180.72 29.36 183.85"/><polyline class="cls-2" points="38.67 184.33 35.9 185.55 34.85 188.67"/></g></g></svg>